<svg xmlns="http://www.w3.org/2000/svg" width="1em" height="1em" viewBox="0 0 24 24">
  <title>analytics-board-graph-line</title>

  <defs>
    <linearGradient id="goldGrad" x1="0" y1="0" x2="1" y2="1">
      <stop offset="0%" stop-color="#FFDB6E"/>
      <stop offset="100%" stop-color="#FFBC5E"/>
    </linearGradient>
  </defs>

  <g fill="none">

    <!-- background board -->
    <path fill="url(#goldGrad)" d="M1 4.826a.957.957 0 0 1 .957-.956h20.087a.956.956 0 0 1 .956.956v14.348a.956.956 0 0 1-.956.956H1.957A.956.956 0 0 1 1 19.174z"/>

    <path fill="url(#goldGrad)" opacity="0.35" d="M1.957 3.87A.957.957 0 0 0 1 4.826v14.348a.94.94 0 0 0 .398.756l16.06-16.06z"/>

    <!-- graph stroke stays dark for contrast -->
    <path stroke="#191919" stroke-linecap="round" stroke-linejoin="round"
      d="m4.826 15.348l2.459-4.1a.48.48 0 0 1 .82 0l2.114 3.526a.478.478 0 0 0 .777.06l1.593-1.913a.478.478 0 0 1 .734 0l1.583 1.9a.478.478 0 0 0 .783-.07l3.484-6.099"/>

    <path stroke="#191919" stroke-linecap="round" stroke-linejoin="round"
      d="M1 4.826a.957.957 0 0 1 .957-.956h20.087a.956.956 0 0 1 .956.956v14.348a.956.956 0 0 1-.956.956H1.957A.956.956 0 0 1 1 19.174z"/>

  </g>
</svg>