<svg xmlns="http://www.w3.org/2000/svg" viewBox="0 0 600 450" width="600" height="450" role="img" aria-label="HR Analytics Dashboard preview">
<rect width="600" height="450" fill="#121212"/>
<rect x="22" y="24" width="12" height="12" rx="3" fill="#FFD65C" />
<text x="42" y="34" font-family="'Segoe UI','Poppins',Arial,sans-serif" font-size="17" font-weight="700" fill="#FFD65C" text-anchor="start">HR</text>
<text x="74" y="34" font-family="'Segoe UI','Poppins',Arial,sans-serif" font-size="17" font-weight="600" fill="#F5F5F5" text-anchor="start">Analytics Dashboard</text>
<rect x="438" y="20" width="62" height="20" rx="10" fill="#202022" stroke="#383838"/>
<text x="469" y="34" font-family="'Segoe UI','Poppins',Arial,sans-serif" font-size="10" font-weight="400" fill="#A3A3A3" text-anchor="middle">2025 ▾</text>
<rect x="508" y="20" width="70" height="20" rx="10" fill="#202022" stroke="#383838"/>
<text x="543" y="34" font-family="'Segoe UI','Poppins',Arial,sans-serif" font-size="10" font-weight="400" fill="#A3A3A3" text-anchor="middle">All ▾</text>
<rect x="22" y="72" width="130" height="92" rx="10" fill="#202022" stroke="#383838"/>
<rect x="32" y="80" width="110" height="3" rx="1.5" fill="#FFD65C" />
<text x="34" y="104" font-family="'Segoe UI','Poppins',Arial,sans-serif" font-size="10" font-weight="400" fill="#A3A3A3" text-anchor="start">Headcount</text>
<text x="34" y="132" font-family="'Segoe UI','Poppins',Arial,sans-serif" font-size="25" font-weight="600" fill="#FFD65C" text-anchor="start">430</text>
<text x="34" y="152" font-family="'Segoe UI','Poppins',Arial,sans-serif" font-size="10" font-weight="500" fill="#41C87C" text-anchor="start">▲ 9.7%</text>
<rect x="164" y="72" width="130" height="92" rx="10" fill="#202022" stroke="#383838"/>
<rect x="174" y="80" width="110" height="3" rx="1.5" fill="#FFD65C" />
<text x="176" y="104" font-family="'Segoe UI','Poppins',Arial,sans-serif" font-size="10" font-weight="400" fill="#A3A3A3" text-anchor="start">Turnover</text>
<text x="176" y="132" font-family="'Segoe UI','Poppins',Arial,sans-serif" font-size="25" font-weight="600" fill="#FFD65C" text-anchor="start">22.6%</text>
<text x="176" y="152" font-family="'Segoe UI','Poppins',Arial,sans-serif" font-size="10" font-weight="500" fill="#41C87C" text-anchor="start">▼ 20%</text>
<rect x="306" y="72" width="130" height="92" rx="10" fill="#202022" stroke="#383838"/>
<rect x="316" y="80" width="110" height="3" rx="1.5" fill="#FFD65C" />
<text x="318" y="104" font-family="'Segoe UI','Poppins',Arial,sans-serif" font-size="10" font-weight="400" fill="#A3A3A3" text-anchor="start">Time to hire</text>
<text x="318" y="132" font-family="'Segoe UI','Poppins',Arial,sans-serif" font-size="25" font-weight="600" fill="#FFD65C" text-anchor="start">33d</text>
<text x="318" y="152" font-family="'Segoe UI','Poppins',Arial,sans-serif" font-size="10" font-weight="500" fill="#41C87C" text-anchor="start">▼ 8%</text>
<rect x="448" y="72" width="130" height="92" rx="10" fill="#202022" stroke="#383838"/>
<rect x="458" y="80" width="110" height="3" rx="1.5" fill="#FFD65C" />
<text x="460" y="104" font-family="'Segoe UI','Poppins',Arial,sans-serif" font-size="10" font-weight="400" fill="#A3A3A3" text-anchor="start">Engagement</text>
<text x="460" y="132" font-family="'Segoe UI','Poppins',Arial,sans-serif" font-size="25" font-weight="600" fill="#FFD65C" text-anchor="start">74</text>
<text x="460" y="152" font-family="'Segoe UI','Poppins',Arial,sans-serif" font-size="10" font-weight="500" fill="#41C87C" text-anchor="start">▲ 4%</text>
<rect x="22" y="182" width="268" height="246" rx="12" fill="#202022" stroke="#383838"/>
<text x="38" y="208" font-family="'Segoe UI','Poppins',Arial,sans-serif" font-size="12" font-weight="600" fill="#F5F5F5" text-anchor="start">Headcount by department</text>
<rect x="88" y="236.6" width="180" height="16" rx="5" fill="#2a2a2c" />
<rect x="88" y="236.6" width="180" height="16" rx="5" fill="#FFD65C" />
<text x="78" y="248.6" font-family="'Segoe UI','Poppins',Arial,sans-serif" font-size="10" font-weight="400" fill="#A3A3A3" text-anchor="end">Eng</text>
<rect x="88" y="273.8" width="180" height="16" rx="5" fill="#2a2a2c" />
<rect x="88" y="273.8" width="120" height="16" rx="5" fill="#E5AF52" />
<text x="78" y="285.8" font-family="'Segoe UI','Poppins',Arial,sans-serif" font-size="10" font-weight="400" fill="#A3A3A3" text-anchor="end">Sales</text>
<rect x="88" y="311" width="180" height="16" rx="5" fill="#2a2a2c" />
<rect x="88" y="311" width="87.27272727272728" height="16" rx="5" fill="#E5AF52" />
<text x="78" y="323" font-family="'Segoe UI','Poppins',Arial,sans-serif" font-size="10" font-weight="400" fill="#A3A3A3" text-anchor="end">Support</text>
<rect x="88" y="348.20000000000005" width="180" height="16" rx="5" fill="#2a2a2c" />
<rect x="88" y="348.20000000000005" width="70.9090909090909" height="16" rx="5" fill="#E5AF52" />
<text x="78" y="360.20000000000005" font-family="'Segoe UI','Poppins',Arial,sans-serif" font-size="10" font-weight="400" fill="#A3A3A3" text-anchor="end">Ops</text>
<rect x="88" y="385.40000000000003" width="180" height="16" rx="5" fill="#2a2a2c" />
<rect x="88" y="385.40000000000003" width="40.90909090909091" height="16" rx="5" fill="#E5AF52" />
<text x="78" y="397.40000000000003" font-family="'Segoe UI','Poppins',Arial,sans-serif" font-size="10" font-weight="400" fill="#A3A3A3" text-anchor="end">Finance</text>
<rect x="302" y="182" width="276" height="116" rx="12" fill="#202022" stroke="#383838"/>
<text x="316" y="206" font-family="'Segoe UI','Poppins',Arial,sans-serif" font-size="11" font-weight="600" fill="#F5F5F5" text-anchor="start">Employee exits by month</text>
<path d="M 318 282 L 318.0 237.2 L 340.4 243.6 L 362.7 224.4 L 385.1 230.8 L 407.5 224.4 L 429.8 237.2 L 452.2 243.6 L 474.5 230.8 L 496.9 218.0 L 519.3 224.4 L 541.6 224.4 L 564.0 224.4 L 564 282 Z" fill="#FFD65C" fill-opacity="0.12"/>
<path d="M 318.0 237.2 L 340.4 243.6 L 362.7 224.4 L 385.1 230.8 L 407.5 224.4 L 429.8 237.2 L 452.2 243.6 L 474.5 230.8 L 496.9 218.0 L 519.3 224.4 L 541.6 224.4 L 564.0 224.4" fill="none" stroke="#FFD65C" stroke-width="2" stroke-linejoin="round" stroke-linecap="round"/>
<circle cx="318.0" cy="237.2" r="2.4" fill="#121212" stroke="#FFD65C" stroke-width="1.5"/>
<circle cx="340.4" cy="243.6" r="2.4" fill="#121212" stroke="#FFD65C" stroke-width="1.5"/>
<circle cx="362.7" cy="224.4" r="2.4" fill="#121212" stroke="#FFD65C" stroke-width="1.5"/>
<circle cx="385.1" cy="230.8" r="2.4" fill="#121212" stroke="#FFD65C" stroke-width="1.5"/>
<circle cx="407.5" cy="224.4" r="2.4" fill="#121212" stroke="#FFD65C" stroke-width="1.5"/>
<circle cx="429.8" cy="237.2" r="2.4" fill="#121212" stroke="#FFD65C" stroke-width="1.5"/>
<circle cx="452.2" cy="243.6" r="2.4" fill="#121212" stroke="#FFD65C" stroke-width="1.5"/>
<circle cx="474.5" cy="230.8" r="2.4" fill="#121212" stroke="#FFD65C" stroke-width="1.5"/>
<circle cx="496.9" cy="218.0" r="2.4" fill="#121212" stroke="#FFD65C" stroke-width="1.5"/>
<circle cx="519.3" cy="224.4" r="2.4" fill="#121212" stroke="#FFD65C" stroke-width="1.5"/>
<circle cx="541.6" cy="224.4" r="2.4" fill="#121212" stroke="#FFD65C" stroke-width="1.5"/>
<circle cx="564.0" cy="224.4" r="2.4" fill="#121212" stroke="#FFD65C" stroke-width="1.5"/>
<rect x="302" y="310" width="276" height="118" rx="12" fill="#202022" stroke="#383838"/>
<text x="316" y="332" font-family="'Segoe UI','Poppins',Arial,sans-serif" font-size="11" font-weight="600" fill="#F5F5F5" text-anchor="start">Workforce composition</text>
<circle cx="348" cy="372" r="26" fill="none" stroke="#2a2a2c" stroke-width="11"/>
<circle cx="348" cy="372" r="26" fill="none" stroke="#FFD65C" stroke-width="11" stroke-dasharray="135.25 28.11" stroke-dashoffset="0.00" transform="rotate(-90 348 372)"/>
<circle cx="348" cy="372" r="26" fill="none" stroke="#E5AF52" stroke-width="11" stroke-dasharray="14.82 148.55" stroke-dashoffset="-135.25" transform="rotate(-90 348 372)"/>
<circle cx="348" cy="372" r="26" fill="none" stroke="#9A7B4F" stroke-width="11" stroke-dasharray="9.12 154.24" stroke-dashoffset="-150.07" transform="rotate(-90 348 372)"/>
<circle cx="348" cy="372" r="26" fill="none" stroke="#6D6D70" stroke-width="11" stroke-dasharray="4.18 159.18" stroke-dashoffset="-159.18" transform="rotate(-90 348 372)"/>
<text x="348" y="376" font-family="'Segoe UI','Poppins',Arial,sans-serif" font-size="14" font-weight="600" fill="#F5F5F5" text-anchor="middle">430</text>
<rect x="394" y="342" width="9" height="9" rx="2" fill="#FFD65C" />
<text x="409" y="350" font-family="'Segoe UI','Poppins',Arial,sans-serif" font-size="10" font-weight="400" fill="#A3A3A3" text-anchor="start">Full-time</text>
<text x="564" y="350" font-family="'Segoe UI','Poppins',Arial,sans-serif" font-size="10" font-weight="600" fill="#F5F5F5" text-anchor="end">83%</text>
<rect x="394" y="360" width="9" height="9" rx="2" fill="#E5AF52" />
<text x="409" y="368" font-family="'Segoe UI','Poppins',Arial,sans-serif" font-size="10" font-weight="400" fill="#A3A3A3" text-anchor="start">Part-time</text>
<text x="564" y="368" font-family="'Segoe UI','Poppins',Arial,sans-serif" font-size="10" font-weight="600" fill="#F5F5F5" text-anchor="end">9%</text>
<rect x="394" y="378" width="9" height="9" rx="2" fill="#9A7B4F" />
<text x="409" y="386" font-family="'Segoe UI','Poppins',Arial,sans-serif" font-size="10" font-weight="400" fill="#A3A3A3" text-anchor="start">Contract</text>
<text x="564" y="386" font-family="'Segoe UI','Poppins',Arial,sans-serif" font-size="10" font-weight="600" fill="#F5F5F5" text-anchor="end">6%</text>
<rect x="394" y="396" width="9" height="9" rx="2" fill="#6D6D70" />
<text x="409" y="404" font-family="'Segoe UI','Poppins',Arial,sans-serif" font-size="10" font-weight="400" fill="#A3A3A3" text-anchor="start">Intern</text>
<text x="564" y="404" font-family="'Segoe UI','Poppins',Arial,sans-serif" font-size="10" font-weight="600" fill="#F5F5F5" text-anchor="end">3%</text>
</svg>